<mxfile host="app.diagrams.net" agent="Mozilla/5.0 (Windows NT 10.0; Win64; x64) AppleWebKit/537.36 (KHTML, like Gecko) Chrome/134.0.0.0 Safari/537.36" version="26.2.4">
  <diagram name="Page-1" id="e7e014a7-5840-1c2e-5031-d8a46d1fe8dd">
    <mxGraphModel dx="1711" dy="749" grid="1" gridSize="10" guides="1" tooltips="1" connect="1" arrows="1" fold="1" page="1" pageScale="1" pageWidth="1169" pageHeight="826" background="none" math="0" shadow="0">
      <root>
        <mxCell id="0" />
        <mxCell id="1" parent="0" />
        <mxCell id="2" value="Admin" style="swimlane;whiteSpace=wrap" parent="1" vertex="1">
          <mxGeometry x="139" y="128" width="305.5" height="570" as="geometry" />
        </mxCell>
        <mxCell id="5" value="" style="ellipse;shape=startState;fillColor=#000000;strokeColor=#ff0000;" parent="2" vertex="1">
          <mxGeometry x="95" y="40" width="30" height="30" as="geometry" />
        </mxCell>
        <mxCell id="6" value="" style="edgeStyle=elbowEdgeStyle;elbow=horizontal;verticalAlign=bottom;endArrow=open;endSize=8;strokeColor=#FF0000;endFill=1;rounded=0" parent="2" edge="1">
          <mxGeometry x="100" y="40" as="geometry">
            <mxPoint x="109.47454545454526" y="110" as="targetPoint" />
            <mxPoint x="109.52" y="70" as="sourcePoint" />
          </mxGeometry>
        </mxCell>
        <mxCell id="9" value="" style="endArrow=open;strokeColor=#FF0000;endFill=1;rounded=0;entryX=0.5;entryY=0;entryDx=0;entryDy=0;" parent="2" target="8SXFjsHuoXWAGEKIt5Aw-41" edge="1">
          <mxGeometry relative="1" as="geometry">
            <mxPoint x="110" y="160" as="sourcePoint" />
            <mxPoint x="115" y="220" as="targetPoint" />
          </mxGeometry>
        </mxCell>
        <mxCell id="11" value="" style="endArrow=open;strokeColor=#FF0000;endFill=1;rounded=0" parent="2" edge="1">
          <mxGeometry relative="1" as="geometry">
            <mxPoint x="109.74" y="270" as="sourcePoint" />
            <mxPoint x="109.94428571428557" y="325" as="targetPoint" />
          </mxGeometry>
        </mxCell>
        <mxCell id="12" value="" style="edgeStyle=elbowEdgeStyle;elbow=horizontal;strokeColor=#FF0000;endArrow=open;endFill=1;rounded=0;exitX=1;exitY=0.5;exitDx=0;exitDy=0;" parent="2" source="8SXFjsHuoXWAGEKIt5Aw-41" edge="1">
          <mxGeometry width="100" height="100" relative="1" as="geometry">
            <mxPoint x="245.5" y="407.5" as="sourcePoint" />
            <mxPoint x="216" y="160" as="targetPoint" />
            <Array as="points">
              <mxPoint x="216" y="272" />
            </Array>
          </mxGeometry>
        </mxCell>
        <mxCell id="8SXFjsHuoXWAGEKIt5Aw-41" value="Authenticated" style="rhombus;whiteSpace=wrap;html=1;" vertex="1" parent="2">
          <mxGeometry x="52.5" y="220" width="115" height="65" as="geometry" />
        </mxCell>
        <mxCell id="8SXFjsHuoXWAGEKIt5Aw-47" value="Yes" style="text;html=1;align=center;verticalAlign=middle;whiteSpace=wrap;rounded=0;" vertex="1" parent="2">
          <mxGeometry x="100" y="285" width="60" height="30" as="geometry" />
        </mxCell>
        <mxCell id="8SXFjsHuoXWAGEKIt5Aw-48" value="No" style="text;html=1;align=center;verticalAlign=middle;whiteSpace=wrap;rounded=0;" vertex="1" parent="2">
          <mxGeometry x="170" y="210" width="60" height="22" as="geometry" />
        </mxCell>
        <mxCell id="8SXFjsHuoXWAGEKIt5Aw-49" value="" style="endArrow=open;strokeColor=#FF0000;endFill=1;rounded=0;exitX=0.557;exitY=0.965;exitDx=0;exitDy=0;exitPerimeter=0;" edge="1" parent="2" source="8SXFjsHuoXWAGEKIt5Aw-79">
          <mxGeometry relative="1" as="geometry">
            <mxPoint x="109.62" y="375" as="sourcePoint" />
            <mxPoint x="661" y="462" as="targetPoint" />
            <Array as="points">
              <mxPoint x="111" y="462" />
            </Array>
          </mxGeometry>
        </mxCell>
        <mxCell id="8SXFjsHuoXWAGEKIt5Aw-63" value="" style="edgeStyle=elbowEdgeStyle;elbow=horizontal;strokeColor=#FF0000;endArrow=open;endFill=1;rounded=0;exitX=0;exitY=0.5;exitDx=0;exitDy=0;" edge="1" parent="2" source="8SXFjsHuoXWAGEKIt5Aw-84">
          <mxGeometry width="100" height="100" relative="1" as="geometry">
            <mxPoint x="335.5" y="254.5" as="sourcePoint" />
            <mxPoint x="246" y="160" as="targetPoint" />
            <Array as="points">
              <mxPoint x="246" y="212" />
            </Array>
          </mxGeometry>
        </mxCell>
        <mxCell id="8SXFjsHuoXWAGEKIt5Aw-65" value="No" style="text;html=1;align=center;verticalAlign=middle;whiteSpace=wrap;rounded=0;" vertex="1" parent="2">
          <mxGeometry x="245.5" y="210" width="44.5" height="24" as="geometry" />
        </mxCell>
        <mxCell id="8SXFjsHuoXWAGEKIt5Aw-78" value="Login" style="rounded=1;whiteSpace=wrap;html=1;" vertex="1" parent="2">
          <mxGeometry x="50" y="110" width="110" height="50" as="geometry" />
        </mxCell>
        <mxCell id="8SXFjsHuoXWAGEKIt5Aw-79" value="&lt;span style=&quot;text-wrap-mode: nowrap;&quot;&gt;create/modify&lt;/span&gt;&lt;br style=&quot;padding: 0px; margin: 0px; text-wrap-mode: nowrap;&quot;&gt;&lt;span style=&quot;text-wrap-mode: nowrap;&quot;&gt;&amp;nbsp;Timetable&lt;/span&gt;" style="rounded=1;whiteSpace=wrap;html=1;" vertex="1" parent="2">
          <mxGeometry x="50" y="322" width="110" height="50" as="geometry" />
        </mxCell>
        <mxCell id="8SXFjsHuoXWAGEKIt5Aw-89" value="Show error" style="rounded=1;whiteSpace=wrap;html=1;" vertex="1" parent="2">
          <mxGeometry x="185.5" y="110" width="94.5" height="50" as="geometry" />
        </mxCell>
        <mxCell id="8SXFjsHuoXWAGEKIt5Aw-105" value="" style="endArrow=open;strokeColor=#FF0000;endFill=1;rounded=0;entryX=0;entryY=0.5;entryDx=0;entryDy=0;" edge="1" parent="2" target="8SXFjsHuoXWAGEKIt5Aw-101">
          <mxGeometry relative="1" as="geometry">
            <mxPoint x="230" y="160" as="sourcePoint" />
            <mxPoint x="230" y="220" as="targetPoint" />
            <Array as="points">
              <mxPoint x="230" y="517" />
            </Array>
          </mxGeometry>
        </mxCell>
        <mxCell id="3" value="Professor" style="swimlane;whiteSpace=wrap" parent="1" vertex="1">
          <mxGeometry x="444.5" y="128" width="280" height="570" as="geometry" />
        </mxCell>
        <mxCell id="8SXFjsHuoXWAGEKIt5Aw-80" value="" style="ellipse;shape=startState;fillColor=#000000;strokeColor=#ff0000;" vertex="1" parent="3">
          <mxGeometry x="100.5" y="42" width="30" height="30" as="geometry" />
        </mxCell>
        <mxCell id="8SXFjsHuoXWAGEKIt5Aw-81" value="" style="edgeStyle=elbowEdgeStyle;elbow=horizontal;verticalAlign=bottom;endArrow=open;endSize=8;strokeColor=#FF0000;endFill=1;rounded=0" edge="1" parent="3">
          <mxGeometry x="-180" y="40" as="geometry">
            <mxPoint x="115.13454545454528" y="112" as="targetPoint" />
            <mxPoint x="115.18" y="72" as="sourcePoint" />
          </mxGeometry>
        </mxCell>
        <mxCell id="8SXFjsHuoXWAGEKIt5Aw-82" value="" style="endArrow=open;strokeColor=#FF0000;endFill=1;rounded=0;entryX=0.5;entryY=0;entryDx=0;entryDy=0;" edge="1" target="8SXFjsHuoXWAGEKIt5Aw-84" parent="3">
          <mxGeometry relative="1" as="geometry">
            <mxPoint x="115.5" y="162" as="sourcePoint" />
            <mxPoint x="120.5" y="222" as="targetPoint" />
          </mxGeometry>
        </mxCell>
        <mxCell id="8SXFjsHuoXWAGEKIt5Aw-83" value="" style="endArrow=open;strokeColor=#FF0000;endFill=1;rounded=0" edge="1" parent="3">
          <mxGeometry relative="1" as="geometry">
            <mxPoint x="115.24000000000001" y="272" as="sourcePoint" />
            <mxPoint x="115.44428571428557" y="327" as="targetPoint" />
          </mxGeometry>
        </mxCell>
        <mxCell id="8SXFjsHuoXWAGEKIt5Aw-84" value="Authenticated" style="rhombus;whiteSpace=wrap;html=1;" vertex="1" parent="3">
          <mxGeometry x="58" y="222" width="115" height="65" as="geometry" />
        </mxCell>
        <mxCell id="8SXFjsHuoXWAGEKIt5Aw-85" value="Yes" style="text;html=1;align=center;verticalAlign=middle;whiteSpace=wrap;rounded=0;" vertex="1" parent="3">
          <mxGeometry x="105.5" y="287" width="60" height="30" as="geometry" />
        </mxCell>
        <mxCell id="8SXFjsHuoXWAGEKIt5Aw-86" value="" style="endArrow=open;strokeColor=#FF0000;endFill=1;rounded=0;exitX=0.547;exitY=0.969;exitDx=0;exitDy=0;exitPerimeter=0;" edge="1" source="8SXFjsHuoXWAGEKIt5Aw-88" parent="3">
          <mxGeometry relative="1" as="geometry">
            <mxPoint x="115.12" y="377" as="sourcePoint" />
            <mxPoint x="355.5" y="442" as="targetPoint" />
            <Array as="points">
              <mxPoint x="115.5" y="442" />
            </Array>
          </mxGeometry>
        </mxCell>
        <mxCell id="8SXFjsHuoXWAGEKIt5Aw-87" value="Login" style="rounded=1;whiteSpace=wrap;html=1;" vertex="1" parent="3">
          <mxGeometry x="55.5" y="112" width="110" height="50" as="geometry" />
        </mxCell>
        <mxCell id="8SXFjsHuoXWAGEKIt5Aw-88" value="&lt;span style=&quot;text-wrap-mode: nowrap;&quot;&gt;Update&amp;nbsp;&lt;/span&gt;&lt;div&gt;&lt;span style=&quot;text-wrap-mode: nowrap;&quot;&gt;Timetable&lt;/span&gt;&lt;/div&gt;" style="rounded=1;whiteSpace=wrap;html=1;" vertex="1" parent="3">
          <mxGeometry x="55.5" y="324" width="110" height="50" as="geometry" />
        </mxCell>
        <mxCell id="8SXFjsHuoXWAGEKIt5Aw-91" value="No" style="text;html=1;align=center;verticalAlign=middle;whiteSpace=wrap;rounded=0;" vertex="1" parent="3">
          <mxGeometry x="215.5" y="212" width="60" height="30" as="geometry" />
        </mxCell>
        <mxCell id="4" value="Student" style="swimlane;whiteSpace=wrap" parent="1" vertex="1">
          <mxGeometry x="724.5" y="128" width="280" height="570" as="geometry" />
        </mxCell>
        <mxCell id="8SXFjsHuoXWAGEKIt5Aw-67" value="" style="ellipse;shape=startState;fillColor=#000000;strokeColor=#ff0000;" vertex="1" parent="4">
          <mxGeometry x="108" y="42" width="30" height="30" as="geometry" />
        </mxCell>
        <mxCell id="8SXFjsHuoXWAGEKIt5Aw-68" value="" style="edgeStyle=elbowEdgeStyle;elbow=horizontal;verticalAlign=bottom;endArrow=open;endSize=8;strokeColor=#FF0000;endFill=1;rounded=0" edge="1" source="8SXFjsHuoXWAGEKIt5Aw-67" parent="4">
          <mxGeometry x="-460" y="40" as="geometry">
            <mxPoint x="123" y="112" as="targetPoint" />
            <Array as="points">
              <mxPoint x="123" y="82" />
            </Array>
          </mxGeometry>
        </mxCell>
        <mxCell id="8SXFjsHuoXWAGEKIt5Aw-70" value="" style="endArrow=open;strokeColor=#FF0000;endFill=1;rounded=0;entryX=0.5;entryY=0;entryDx=0;entryDy=0;" edge="1" target="8SXFjsHuoXWAGEKIt5Aw-73" parent="4">
          <mxGeometry relative="1" as="geometry">
            <mxPoint x="123" y="162" as="sourcePoint" />
            <mxPoint x="128" y="222" as="targetPoint" />
          </mxGeometry>
        </mxCell>
        <mxCell id="8SXFjsHuoXWAGEKIt5Aw-72" value="" style="endArrow=open;strokeColor=#FF0000;endFill=1;rounded=0;entryX=0.438;entryY=0.025;entryDx=0;entryDy=0;entryPerimeter=0;" edge="1" parent="4" target="8SXFjsHuoXWAGEKIt5Aw-104">
          <mxGeometry relative="1" as="geometry">
            <mxPoint x="122.74000000000001" y="272" as="sourcePoint" />
            <mxPoint x="122.94428571428557" y="327" as="targetPoint" />
          </mxGeometry>
        </mxCell>
        <mxCell id="8SXFjsHuoXWAGEKIt5Aw-73" value="Authenticated" style="rhombus;whiteSpace=wrap;html=1;" vertex="1" parent="4">
          <mxGeometry x="65.5" y="222" width="115" height="65" as="geometry" />
        </mxCell>
        <mxCell id="8SXFjsHuoXWAGEKIt5Aw-74" value="logout" style="rounded=0;whiteSpace=wrap;html=1;" vertex="1" parent="4">
          <mxGeometry x="145.5" y="418" width="110" height="48" as="geometry" />
        </mxCell>
        <mxCell id="8SXFjsHuoXWAGEKIt5Aw-75" value="Yes" style="text;html=1;align=center;verticalAlign=middle;whiteSpace=wrap;rounded=0;" vertex="1" parent="4">
          <mxGeometry x="113" y="287" width="60" height="30" as="geometry" />
        </mxCell>
        <mxCell id="8SXFjsHuoXWAGEKIt5Aw-76" value="" style="endArrow=open;strokeColor=#FF0000;endFill=1;rounded=0;exitX=0;exitY=0.75;exitDx=0;exitDy=0;" edge="1" parent="4">
          <mxGeometry relative="1" as="geometry">
            <mxPoint x="73" y="364.5000000000002" as="sourcePoint" />
            <mxPoint x="73.5" y="422" as="targetPoint" />
            <Array as="points">
              <mxPoint x="45.5" y="365" />
              <mxPoint x="45.5" y="422" />
            </Array>
          </mxGeometry>
        </mxCell>
        <mxCell id="8SXFjsHuoXWAGEKIt5Aw-90" value="" style="edgeStyle=orthogonalEdgeStyle;elbow=horizontal;strokeColor=#FF0000;endArrow=open;endFill=1;rounded=0;exitX=0;exitY=0.5;exitDx=0;exitDy=0;" edge="1" parent="4">
          <mxGeometry width="100" height="100" relative="1" as="geometry">
            <mxPoint x="65.5" y="257" as="sourcePoint" />
            <mxPoint x="-324.5" y="162" as="targetPoint" />
            <Array as="points">
              <mxPoint x="-54" y="257" />
              <mxPoint x="-54" y="182" />
              <mxPoint x="-324" y="182" />
            </Array>
          </mxGeometry>
        </mxCell>
        <mxCell id="8SXFjsHuoXWAGEKIt5Aw-97" value="" style="html=1;points=[];perimeter=orthogonalPerimeter;fillColor=strokeColor;" vertex="1" parent="4">
          <mxGeometry x="75.5" y="402" width="5" height="80" as="geometry" />
        </mxCell>
        <mxCell id="8SXFjsHuoXWAGEKIt5Aw-99" value="" style="endArrow=open;strokeColor=#FF0000;endFill=1;rounded=0;entryX=0;entryY=0.5;entryDx=0;entryDy=0;" edge="1" parent="4" target="8SXFjsHuoXWAGEKIt5Aw-74">
          <mxGeometry relative="1" as="geometry">
            <mxPoint x="85.5" y="442" as="sourcePoint" />
            <mxPoint x="122.47000000000003" y="512" as="targetPoint" />
          </mxGeometry>
        </mxCell>
        <mxCell id="8SXFjsHuoXWAGEKIt5Aw-100" value="" style="edgeStyle=elbowEdgeStyle;elbow=horizontal;verticalAlign=bottom;endArrow=open;endSize=8;strokeColor=#FF0000;endFill=1;rounded=0" edge="1" parent="4">
          <mxGeometry x="-460" y="40" as="geometry">
            <mxPoint x="199.97" y="506" as="targetPoint" />
            <mxPoint x="199.97" y="466" as="sourcePoint" />
            <Array as="points">
              <mxPoint x="199.97" y="476" />
            </Array>
          </mxGeometry>
        </mxCell>
        <mxCell id="8SXFjsHuoXWAGEKIt5Aw-101" value="" style="ellipse;html=1;shape=endState;fillColor=#000000;strokeColor=#ff0000;" vertex="1" parent="4">
          <mxGeometry x="185.5" y="502" width="30" height="30" as="geometry" />
        </mxCell>
        <mxCell id="8SXFjsHuoXWAGEKIt5Aw-103" value="Login" style="rounded=1;whiteSpace=wrap;html=1;" vertex="1" parent="4">
          <mxGeometry x="65.5" y="112" width="110" height="50" as="geometry" />
        </mxCell>
        <mxCell id="8SXFjsHuoXWAGEKIt5Aw-104" value="&lt;span style=&quot;text-wrap-mode: nowrap;&quot;&gt;View&amp;nbsp;&lt;/span&gt;&lt;div&gt;&lt;span style=&quot;text-wrap-mode: nowrap;&quot;&gt;Timetable&lt;/span&gt;&lt;/div&gt;" style="rounded=1;whiteSpace=wrap;html=1;" vertex="1" parent="4">
          <mxGeometry x="75.5" y="332" width="110" height="50" as="geometry" />
        </mxCell>
      </root>
    </mxGraphModel>
  </diagram>
</mxfile>
